<svg xmlns="http://www.w3.org/2000/svg" xml:space="preserve" width="2000" height="236" data-id="lg_MZBqjb6H2ZaBR0PZfo" data-version="1"><g data-padding="20"><g fill="#db0028"><path stroke="null" stroke-width=".962" d="M765.813 230.363h-15.106q-.53 0-.53-.664l.26-91.827q0-.538.539-.538h16.308q.538 0 .932.538l12.164 17.644 12.163-17.644q.404-.538.943-.538h16.442q.529 0 .529.538l.269 91.827q0 .664-.538.664H795.09q-.538 0-.538-.664l-.135-68.173-14.038 20.317-13.894-20.317-.135 68.173q0 .664-.538.664Zm80.865 1.336q-7.212 0-13.164-3.673-5.942-3.673-9.557-9.76-3.606-6.076-3.606-13.432l.135-42.375q0-7.346 3.538-13.366 3.548-6.01 9.558-9.625 6.019-3.605 13.096-3.605 7.221 0 13.106 3.605 5.875 3.616 9.423 9.625 3.538 6.02 3.538 13.366l.135 42.375q0 7.356-3.539 13.432-3.548 6.087-9.49 9.76-5.952 3.673-13.173 3.673Zm0-16.173q4.02 0 7.02-3.27 3.009-3.278 3.009-7.422l-.135-42.375q0-4.404-2.808-7.481t-7.086-3.077q-4.135 0-7.077 3.01t-2.942 7.548v42.375q0 4.413 2.942 7.557 2.942 3.135 7.077 3.135Zm65.106 14.837H895.6q-.529 0-.663-.664l-18.443-91.827q-.134-.538.529-.538h15.106q.538 0 .663.538l10.962 61.212 10.702-61.212q.125-.538.663-.538h14.971q.673 0 .539.538L912.447 229.7q-.135.664-.663.664Zm42.5 0h-15.106q-.664 0-.664-.664l.135-91.827q0-.538.529-.538h14.971q.539 0 .539.538l.134 91.827q0 .664-.538.664Zm56.01 0H967.12q-.538 0-.538-.664l.134-91.827q0-.538.539-.538h42.904q.538 0 .538.673v14.961q0 .539-.538.539h-27.404v20.856h27.404q.538 0 .538.528l.125 15.106q0 .539-.529.539h-27.538v23.394h27.538q.53 0 .53.663v15.24q0 .53-.53.53Zm28.067 0h-15.106q-.529 0-.529-.664l.27-91.827q0-.538.528-.538h16.308q.538 0 .932.538l12.164 17.644 12.163-17.644q.404-.538.943-.538h16.442q.529 0 .529.538l.269 91.827q0 .664-.538.664h-15.097q-.538 0-.538-.664l-.135-68.173-14.038 20.317-13.894-20.317-.135 68.173q0 .664-.538.664Zm51.596-.664 16.577-91.827q.134-.538.663-.538h19.385q.538 0 .673.538l15.904 91.827q.134.664-.539.664h-14.836q-.53 0-.664-.664l-1.471-9.76h-18.183l-1.47 9.76q-.135.664-.664.664h-14.837q-.538 0-.538-.664Zm26.202-61.625-6.02 37.567h12.837l-5.48-37.567-.809-4.942Zm80.336 62.289h-49.865q-.664 0-.664-.664l.135-14.567 32.75-62.558h-31.01q-.538 0-.538-.538v-14.03q0-.672.538-.672h48.385q.663 0 .663.673v14.433l-32.615 62.288h32.221q.529 0 .529.663l.135 14.308q0 .664-.664.664Zm52.798 0h-43.173q-.538 0-.538-.664l.134-91.827q0-.538.53-.538h42.913q.529 0 .529.673v14.961q0 .539-.53.539h-27.403v20.856h27.404q.529 0 .529.528l.134 15.106q0 .539-.529.539h-27.538v23.394h27.538q.53 0 .53.663v15.24q0 .53-.53.53Z" font-family="Staatliches" font-size="139.015"/><path d="M1063.826 4.925H936.06a3.66 3.66 0 0 0-3.66 3.66v76.656a3.66 3.66 0 0 0 3.66 3.66h58.406v14.589h-10.954a3.66 3.66 0 1 0 0 7.294h29.203a3.66 3.66 0 0 0 0-7.294h-10.955V88.9h62.067a3.66 3.66 0 0 0 3.66-3.66V8.586a3.66 3.66 0 0 0-3.66-3.647m-3.66 76.668H939.719V12.233h120.474Z"/><path d="M991.049 60.89q.149.353.339.651c.095.136.122.298.217.434q.08.04.135.108.407.407.908.705.15.122.326.217.678.312 1.491.326.678 0 1.302-.258.23-.095.434-.244.27-.122.542-.285l14.602-11.686c.135-.109.19-.244.298-.353l.27-.217.15-.298q.203-.298.339-.65a3.53 3.53 0 0 0-.339-3.322l-.135-.299c-.095-.108-.231-.149-.326-.257s-.135-.217-.257-.312l-14.602-11.687q-.203-.122-.407-.203-.325-.217-.678-.353-.352-.108-.732-.135c-.163-.027-.298-.109-.46-.109l-.204.04q-.353.042-.719.15-.339.068-.664.203-.271.163-.515.353-.34.23-.597.501l-.162.136q-.122.19-.217.407-.204.312-.34.678-.108.352-.135.732-.068.217-.095.46v23.36c0 .163.068.299.082.462q.04.38.149.745m7.063-16.974 5.111 4.08-5.11 4.095Z"/></g><path fill="transparent" stroke="transparent" d="M740 0h520v236H740z"/></g></svg>